<mxfile host="app.diagrams.net" agent="Mozilla/5.0 (Windows NT 10.0; Win64; x64) AppleWebKit/537.36 (KHTML, like Gecko) Chrome/141.0.0.0 Safari/537.36" version="28.2.7">
  <diagram name="Page-1" id="DoU1m9Y6ySE_axMx4Qet">
    <mxGraphModel dx="1870" dy="1038" grid="1" gridSize="10" guides="1" tooltips="1" connect="1" arrows="1" fold="1" page="1" pageScale="1" pageWidth="3300" pageHeight="4681" math="0" shadow="0">
      <root>
        <mxCell id="0" />
        <mxCell id="1" parent="0" />
        <mxCell id="9reZQKUpWbnYwI93RdAQ-7" style="edgeStyle=orthogonalEdgeStyle;rounded=0;orthogonalLoop=1;jettySize=auto;html=1;entryX=0;entryY=0.5;entryDx=0;entryDy=0;" parent="1" source="9reZQKUpWbnYwI93RdAQ-2" target="9reZQKUpWbnYwI93RdAQ-18" edge="1">
          <mxGeometry relative="1" as="geometry">
            <mxPoint x="320" y="160" as="targetPoint" />
          </mxGeometry>
        </mxCell>
        <mxCell id="9reZQKUpWbnYwI93RdAQ-2" value="&lt;div&gt;&lt;font style=&quot;font-size: 14px;&quot;&gt;&lt;br&gt;&lt;/font&gt;&lt;/div&gt;&lt;div&gt;&lt;font style=&quot;font-size: 14px;&quot;&gt;&lt;br&gt;&lt;/font&gt;&lt;/div&gt;&lt;div&gt;&lt;font style=&quot;font-size: 14px;&quot;&gt;&lt;br&gt;&lt;/font&gt;&lt;/div&gt;&lt;font style=&quot;font-size: 14px;&quot;&gt;Je me porte&amp;nbsp;&lt;/font&gt;&lt;div&gt;&lt;font style=&quot;font-size: 14px;&quot;&gt;garant en cas de démission du concerné&lt;/font&gt;&lt;/div&gt;" style="shape=note;whiteSpace=wrap;html=1;backgroundOutline=1;darkOpacity=0.05;fillColor=#dae8fc;strokeColor=#6c8ebf;" parent="1" vertex="1">
          <mxGeometry x="160" y="96" width="90" height="130" as="geometry" />
        </mxCell>
        <mxCell id="9reZQKUpWbnYwI93RdAQ-16" style="edgeStyle=orthogonalEdgeStyle;rounded=0;orthogonalLoop=1;jettySize=auto;html=1;entryX=0;entryY=0.5;entryDx=0;entryDy=0;" parent="1" source="9reZQKUpWbnYwI93RdAQ-3" target="9reZQKUpWbnYwI93RdAQ-13" edge="1">
          <mxGeometry relative="1" as="geometry" />
        </mxCell>
        <mxCell id="9reZQKUpWbnYwI93RdAQ-3" value="&lt;font style=&quot;font-size: 14px;&quot;&gt;jh#56fd5&lt;/font&gt;&lt;div&gt;&lt;font style=&quot;font-size: 14px;&quot;&gt;6fr7/#ml5&lt;/font&gt;&lt;/div&gt;" style="shape=note;whiteSpace=wrap;html=1;backgroundOutline=1;darkOpacity=0.05;" parent="1" vertex="1">
          <mxGeometry x="520" y="110" width="70" height="100" as="geometry" />
        </mxCell>
        <mxCell id="9reZQKUpWbnYwI93RdAQ-6" style="edgeStyle=orthogonalEdgeStyle;rounded=0;orthogonalLoop=1;jettySize=auto;html=1;entryX=0;entryY=0.5;entryDx=0;entryDy=0;entryPerimeter=0;exitX=1;exitY=0.5;exitDx=0;exitDy=0;" parent="1" source="9reZQKUpWbnYwI93RdAQ-18" target="9reZQKUpWbnYwI93RdAQ-3" edge="1">
          <mxGeometry relative="1" as="geometry">
            <mxPoint x="450" y="160" as="sourcePoint" />
          </mxGeometry>
        </mxCell>
        <mxCell id="9reZQKUpWbnYwI93RdAQ-12" value="&lt;font style=&quot;font-size: 14px;&quot;&gt;&lt;b&gt;Empreinte&lt;/b&gt;&lt;/font&gt;" style="text;html=1;whiteSpace=wrap;strokeColor=none;fillColor=none;align=center;verticalAlign=middle;rounded=0;" parent="1" vertex="1">
          <mxGeometry x="523" y="222" width="60" height="30" as="geometry" />
        </mxCell>
        <mxCell id="9reZQKUpWbnYwI93RdAQ-28" style="edgeStyle=orthogonalEdgeStyle;rounded=0;orthogonalLoop=1;jettySize=auto;html=1;entryX=0;entryY=0.5;entryDx=0;entryDy=0;" parent="1" source="9reZQKUpWbnYwI93RdAQ-13" target="9reZQKUpWbnYwI93RdAQ-24" edge="1">
          <mxGeometry relative="1" as="geometry" />
        </mxCell>
        <mxCell id="9reZQKUpWbnYwI93RdAQ-13" value="&lt;font style=&quot;font-size: 14px;&quot;&gt;Chiffrement de l&#39;empreinte par la clé publique&lt;/font&gt;" style="rounded=0;whiteSpace=wrap;html=1;fillColor=#f5f5f5;fontColor=#333333;strokeColor=#666666;" parent="1" vertex="1">
          <mxGeometry x="650" y="130" width="140" height="60" as="geometry" />
        </mxCell>
        <mxCell id="9reZQKUpWbnYwI93RdAQ-14" value="" style="shape=image;verticalLabelPosition=bottom;labelBackgroundColor=default;verticalAlign=top;aspect=fixed;imageAspect=0;image=data:image/png,iVBORw0KGgoAAAANSUhEUgAAAOEAAADhCAMAAAAJbSJIAAABI1BMVEX///8aGhrvnDIAAAAbGxv8/PwXFxcTExP6///f39+3t7c/Pz/wnC7xnjQfHx/NgiLylR722LXJycnv7+/n5+fW1tYJCQnu7u7Pz8/19fXHx8c2Njarq6v2woz7/fna2tqLi4tkZGSbm5t8fHxLS0spKSm1tbVYWFiGhoaUlJR2dnZtbW06OjqoqKhgYGBRUVHppEr/+e7usFn31avI0s4uLi756Nb007jxx5vu1KzulhDuoyrquG763sP0wn7umyPuoz/01aTxljTxz5j27Nzv27b4lyjpmg/IiCLZex7bjCzulin4mBb46drNhzfPfSf2sGrryHnxlz7hs4bioTvFyNXirGbwtlvI0Lv6687sw4Hgr3TSxcHbupjxqEnWwaz3s2isJqIqAAALrklEQVR4nO2dDVvbRhLHZY1WkrGsurIlSwYEGIMxxoAhUGoDMoSXXp30ci3Jlcull+//KW5Wso1fJGMFWr10f88TYhziZ/+Z2dmZXc2G4xgMBoPBYDAYDAaDwWAwGAwGIzEQn1epwypa7u+plGhVdnJAMfYbetSDeW3QYqWdDICUETKZjCgBLK8QLkWWJJy1DiBmxpBgaxvNGvXIXgnCmVuQmUaE/WLUI3sVCCHcCrqn659j4LeGquMfRz3AF4MSqpMO+iRSgrUUKOS4bRAFIUCiVIqhwnD/6oTLzk7BkUJB2oujwjBBHn9yT/I3oIsKO8meioQjO8EmpFYUYzcVMW6cqCEAEMQ5NswIRjNu6/4OSGII5hnQA0pRS5pkHTLq86NeAMzcDFc/NKLWNAahAjMzi3d41Awsr1d3ATKCKtWiljXGM2EjBLBEP8/aBEEQIEbJWwtebL2BwIqbzhGuaWQE+k1cWEGvGnNRITPx7eIYG8NPLItSBlai1DQBzTAzTwmYkPnWGYk+Olwh6pIA1UhVjUOsySSalutuRRtaoT5SiDM7VsGUQ4nomCqm0kIGdq1yHUQRTmhxNDLrIgorI4VNI042dKESDQkzFRwYoeujWiFY4IoSGgO1L6TQ2BwqtFQxTvOQGzgqbKIwnEsWsbB0sGj2uQm1Na4yWMOfBZPRweet479XnGKpxwo1XiU7+aa7ppWb8MS8kkISvM02jFy4WsQsbaOQwGS5WC4O2ZeCFaKPN7crrRpNIMT4lYiECiSTNY+neUL5Lri5Z+BcpGamL9DnEwlBhbDVWNs1hIAtjCGQ1N1hkt2poEXL4zmC75Ssxa0+XBTXiwmtRuYrjF8kDQsR5q0gAuxHPcCXo80rSCS1nILTi8acohK0qEf3KmyCf8KqCrAd9dheA0ILCN+5KNEqKvEu6h3NtAxjtvCAE306cUgsmJ/XMbtRR4s/xlcDNq3kx5gh1FBaHbO0weawhCnbbjY1BvSg59ytuuqVHSfNbWuQ36YNq7xmmtly+oQNSa+yEd7E+xsIZTAYDAaDwWAwGAwGg8FgMBgMBiMNpKqx8u9IMWtWKno2La2jT3heqTdyGe+EdKveKqfshBSVLNXoKbd7iO+2OjdTdsq9VqOH+N4pvkDxnlRIB9ROVfB5nBZUM2y/Zkwh9KEo/yeGtlOhkD5L6/8IvypSiVGP78UQbl47WPKfLkWW5vW7iWI56vG9GEuc1yWrGrF7ghYjQ2ktuzhmzXj2Keh4TUVi1SEU0jPP6seqhZRi1cIJpN2+wQrpn8SqG4FYRF9ZCsP2SnUz57PaC6LbUUKzONiJWtYT3zZfLG22b0bAnK1ibtfdMLsco3lo7e/lQrKsGj6rhXTiNYa5bbdx6uxqgBQav0sHRMiOPlGMVTTVXqlZnV734X0i2UKFrWhVTVCBicAo0RgihG/ofrKaVZcyUM02zJhUUmQg0RUlCnCQo31b4rCwXVin2+lMc4ddScJ5WNUA1F09DjtUxJWI84h2wwqwwpF1EA1jX6TRUlqwRZYq9EqKBtBrIwSorp3QhXMj++wA/nSBAyuK0KSdzSZ9oyLtlzhrAyTYakqB7ZRT0GSUkAOAWkvyOp2tJfwuHk3dVCIOaQlypeEblO29dXS6g/FYO89nqREPqKIm9VLT/Qgth2YMdYHRnwItyXUNR1EatIPQ3aTB09v4tbW3PGJeSSECVo1QIU3a3e/e/EGlodfWIu8yIU9fh1+8ruDBTR5jNA1VVANkwraOnlBU6YLvpd7uX15CiQna1mgaOFdF3+ZDUeVyUOdOvE7nsdmHM2A3uhGHZROkZoW0/JIEWM8CZKue+omkbQUS1LBnLbn72lt++4h6A2qcQfeG6U0u4365C0Yx6qkYCuIl15M+mpGsA6ia1LoqpqgTN9MSCTYTppCrzaySUg51mF7zLKxPbZlitIlRrbEQ2elgIxh1DqDYpE2XRm768IIsx+y+mgVYmrp0QDA2LACybwiiaMzaqwpbEQzyJbhTcdJL96nCDSMjYZ1oTf90CSD6BDUcBK0ojVlRkA7QS0u7Bm0EnokqhOTidSXPIhBOXx4zoyAtky2otGDD8g2azTjtTS0GXQSq8HTAJoDVhMbatm+WTbCo2ph9O+ZQIVbjxN0+FEVM5tCAOf8qgra2Y0KXTIjeqC+rYkbd29AwnKwF/dxKMhUOayyraLnRMxeUYifTSz3I+Es3dfGdhhhpEnqv0jiEGnHfP//EpGbprx7P60PvWABo+UrUk5eYBrAJoBOfJxWacBDFcF4fgn5qrM0uGSakwUkphJS3wNuRHMfaMhJ7+dcspS13i5R4N9m5O1lWzUjLLKQQLPVhb/S8Cd1fRs1peP5kCCHuxn6u5f33AcUKfURgxm+TTnbDvbDmYH+/JuCLeopc1APtlV1Xhw81bKTjbrMJvI3yUqXVqG6b0R9aMBgMBoPBYDAYDAaDwVgQmf6SOdt7lS5sW+bapz+cId8/WpxNSLo02rLc/vGr06E4Tr97fmHLdtSDekVQTPtS6Tg9nufzvKLkeafTu0rRrhOxyVWvcM1PcN05epTbUQ/tlZDJeYfvdicVdvl+4SolU1FuHxbQNfkpG+I7hUuOS/5slG1y2M9P6xvQWZWTPxtt8rXPBwhEiVdRj88H217csaiB3qKL5oMU5u8f47aT7527ywvCEfnGCbYgohzK8ZJIOPnm4uKH7xfl9m33LmgSegGnE7OAijY57LwrLI5zfa1c+zuoa1uF70WtaRybk98/XOfD4iuwq/DXebpG3j/GyEuJ/P6nf3wXkp9/9pOo3PU79++odfvnUcsaw37/yz+/+yW0Qh99zuFFm5yeoSH56158cjd00XlBw58872NC5QNdcWT5lO/jmngTtbAR8r/uMPsKCe8zD5VemwZQm3C3Tj5fuI1a2Aj5ffe6+zReugp0Z0a/CP23bnGIKu3DPl84jlrYCNt+37v79clRu47zbRILj65CjKHFc4V3fjMHF5xFH1Rt++bhbqSpwK9eOn0aNsLOzs6pl3CXzY+fqEINMUvR68Pl0JZvete4SN/jF+fhkZNvu07n6PjfDt/v9u+weF9Ma/9Ypq2nesU0j+4U58wq6VRkLJ4WInYbfVM5e+gXPrhB/vT82Jbls75TOL86cpTeQgppMspZpvZ79rSQV9xIY5VMs6LHwIwEHfWQP5VP/1ilNYaN6uib8s3lLZbyq05hFEP78yQ6qxwxTdNqHyp8t/Do3b+XRVeN/uIB6qjt6RWa7n/iL2Jzj/9ZHXLZ62G0DfBa5fpS10z79tDB18rw84qxkDgXe7xyuvSs6K/x/rNmfuo6d3RSfhrUm2hGUzNj4KhzIOjEAwh32UdPPXpwfG3o/Nf80sHf8HXh+Kl8wrkZh7k4j6fBymedP67a3EW/65O2KR/eaG5Q6vJ9pT1WIFqalo3DurgIstymWwH2UeHX2azA+fLmf84w6IxtfhOuVNGshEgkqA6RLxSfXRp00t/caYqhqD3ZkKBrgQ1RceXcZyZ2NfPIC0Hvfpz6cQyoMY+n09h2fsZLlZ5pHroKO5czf0HXEtYkS+THmRVDefho9qiX9o/aM1OurJlRjPNFnD70lfx4yqr0UCGv5J1Dv+41TSv+9WN8GfJprzBZf+S1j0f9bueTz/4FQTeNRQoeBiLb585EvFF+//j57v7Y/9Aim7SJ6PH4tYCu2leouyqK8+Xjl69BG1AlLU43KS4KpuW3l3wBC68+qnQ6n9+YdtBedzIVEvdBhcfjy6Ojo6+rx482hpOgA55kKpxhLVhGKXlZjR+YYgfdIJzAWOrLWtDCjkVi8m9PpqAQf2csx70KXphywOZa4vLSYLK+EkuJqy3moJuVGYlukZ8SL+WoQ2r6pMFQYPIqi2AIumTFHL/NjG6ZpqzPsmhqpqaXqCFJMWtifE2TOo+SqbkHM1rFPZ5JlwG5we1DWd2Tp5dTpm4MYiHplfd3gVmQwWAwGAwGA/k/juoH5tkd9nQAAAAASUVORK5CYII=;clipPath=inset(70% 22% 5.56% 29.11%);rotation=-90;" parent="1" vertex="1">
          <mxGeometry x="770" y="130" width="40" height="20" as="geometry" />
        </mxCell>
        <mxCell id="9reZQKUpWbnYwI93RdAQ-18" value="&lt;font style=&quot;font-size: 14px;&quot;&gt;Hachage&lt;/font&gt;" style="label;whiteSpace=wrap;html=1;image=img/clipart/Gear_128x128.png" parent="1" vertex="1">
          <mxGeometry x="302" y="130" width="140" height="60" as="geometry" />
        </mxCell>
        <mxCell id="9reZQKUpWbnYwI93RdAQ-24" value="&lt;font style=&quot;font-size: 14px;&quot;&gt;Signature&lt;/font&gt;" style="rounded=0;whiteSpace=wrap;html=1;fillColor=#d5e8d4;strokeColor=#82b366;" parent="1" vertex="1">
          <mxGeometry x="899.15" y="130" width="120" height="60" as="geometry" />
        </mxCell>
        <mxCell id="9reZQKUpWbnYwI93RdAQ-27" value="" style="shape=image;verticalLabelPosition=bottom;labelBackgroundColor=default;verticalAlign=top;aspect=fixed;imageAspect=0;image=data:image/jpeg,/9j/4AAQSkZJRgABAQAAAQABAAD/2wCEAAkGBxAQEg8QEQ8QERIQFQ8OExISDxAODhARFxIYFhUSExMYHSggGBolGxMTITEhJisrLi4uFx8zODMtNygtLisBCgoKDg0OFw8PFTUdFx4tKzUrKzMtKzcrNzcuKzctLTcvNzgrKy03OC0rKy0rKzgtNy0tNy4rLCstNystNy0rK//AABEIAOEA4QMBIgACEQEDEQH/xAAcAAEAAQUBAQAAAAAAAAAAAAAABwMEBQYIAgH/xABEEAACAQIBCAUIBggHAQAAAAAAAQIDEQQFBgcSITFRcRMiQWGBMnKRobGywcIjMzVSc4MkJTRCdIKS8BRiZKKz0eFj/8QAGAEBAQEBAQAAAAAAAAAAAAAAAAECBAP/xAAdEQEBAQEAAgMBAAAAAAAAAAAAAQIRBFESMUED/9oADAMBAAIRAxEAPwCcQAAAAAAAAAAAAAAAAAAAAAAAAAAAAAAAAAAAAAAAAAAAAAAAAAAAAAAAAAAAAAAAAAAAAAAAAAAAAAAAAAAAAAAAAAAAAAAwed2c9DJtHpat5zm9SlRh9bWqdkYrhtV32c7JhmqlSMU5SailtbbSSXFs1bKGkfJFBtSx1OTWx9DGpibPhelGSInzwyjWrvXyriJXfXp5OoS1adKO+PTPdrc7y5blpdfKtG9oUacV2KznL0veB0Pg9J+Rqr1VjowfGrSr4eP9VSKXrNqwuKp1YqdKpCpCW1ThKM4PlJbGck/4qlJ2cVF/0syGRcq4vJ8+mwVeVPbeUV1qVTuqU90ue/g0B1YDUNHufVHKtNqypYmkk6tG91bd0lN9sG/FPY+xvbwAAAAAAAAAAAAAAAAAAAAAAAAAAAAAD43baQdlnONVJ4rLE7SUJywOTIPbBJeViLcdt+bt2IlHP/HOhk/Gzi7S6GrGL7U5R1U/Wc9Z24jVw+TqK8mnh+la/wA9SblJ+wDzkDItXKVWdWrOfRKT153+kqze1xi/FXff6JQyPmwqcVGhQjTXdHrPvct7fMyOjrNuMMPh01sjCLey2tNrWk/FtkiU6MYqySQEY5RzdlKLVWjGpHhKKkvWR1nJm28JetRT6G6U6bvJ0r7LpvfHnu9nSk6aexpM1LOzIMJQk1G8ZJxkuxpqzQEAZOylVwGIoY2h5UHrat7RnHdOlLuauvQ+w6kyZjqeJo0cRSd6daEKsHxjKKav37TlzEYVrD1k9vQVuiv6V8pNmhDHOpkynCTbdGpXpLzddyivBTS8AJBAAAAAAAAAAAAAAAAAAAAAAAAAAAAAaZpYf6uxPmfMiAc7vIw38NT9jJ+0sfZ+J8z5kc/52PqYf+Hp/EDprNOCWGo98Ie6jMmIzV/ZqPmQ91GXAFrlKN6cuRdFvj/q5cgOZ8d9TlJf6v56hJugSX6HUX/2q+7AjHHv6LKP8W/fqEm6BP2Sp+NV9kQJUAAAAAAAAAAAAAAAAAAAAAAAAAAAAxOcWceFyfCNTE1dRTerFKMpzk7Xdox22XHdtXEDBaWPs/E+Z8yOfs6n1MP/AA8PiSjn7pGwOMwtbD0VWcpx1VKUYQhvv96/ZwIpy7VjVhh9V7qSpyXbGSbA6hzU/ZqHmQ91GYOe8NpWxtOlClDoaerGMbqk5S2K2+Ta9RY4rSJlOre+Kr/lqNH/AI0i8HSRisr5Ww1OElPEUIOz2SrU4v0NnNGMy5i6v1k60/xKs5+8zHzxVTilyQ4MtjqidLKNmn+k6+zb1XOdpctqNn0ZZ+4XJmFnTrQqym6lSaUFG1mo22t93Ajmcnt2vbv27+ZSkB0nmVpIw2U6sqCpzo1LOVOM2p9JFK8tq3NcOHabuc0aH6jjlOi19ysvTA6WiyD6AAAAAAAAAAAAAAAAAAAAAAAAQdp2ra2Iwq+7TqL/AHonEgnTf+00PMn7yLBHuDhFtXSa5XN3wOBw+qv0eje290oN+mxpOFN6wj2R81ewqKGLpwj5MYrlFL2GExbMxlGqoptmvYmtJ3aXqbJbwWlcs6h6rV5Pcr9uxN7OJbUqzle9tltw6EinIqMpSKNx0SL9Y0u6NV+q3xOmYbkc2aHFfKC/Cqe9A6TjuRlX0AAAAAAAAAAAAAAAAAAAAAAAAgzThD6fDvjGqvQ4/wDZOZCOnRfS4XlW+QsSo2w+5837DdcPLZHzY+w0qh5L5v2G30pdWnyh7EUW2WXsXnL2MrZMwqdOMuOt7WW2VXsXP4Mp0ctRpU4wcZNq6urW2tvj3nF52N7xJifrn8jOtZkz7UMFi6FPCy6tTWlCSlPopOLm4tWc91k3Y1TCfveHxM5LLFqHQ6ruoOn2ajVrXZhcNHY3xN+Pi5u7Zzt9t/yzZ8rZ916ZSZVe8ps6nq3nQyv1h+VU96B0gjm/Qv8AaH5NT34HSCMq+gAAAAAAAAAAAAAAAAAAAAAAAEJ6dPrcLyr/ACE2EKadPrML+d8hYlRpQ8iXN+xGzwl1af8AJ7EaxR8iXP4I2KEurT/k+BR6xaT38zE4ilHh7S8ynjI01d73uit7/wDDA1MdUnutFctZ+sg91aUeCLeoHUn2tPwsJ7VcCh2lJlbtKLKN70L/AGh+TU9+B0ejnHQt9oP8GfvwOjkZV9AAAAAAAAAAAAAAAAAAAAAAAAIV06fWYX875CaiHdOVC6oVPuzlH+qN/kEEV0fIlz+CM7F9WnziYGg+rJd9zJLE9Wn3arNIwuLrOrVlJ7ttu6K3L++LPpRitWcovvXo/tlYyr4z3Q327JbH8P77zwZTNrJ0sTiKVOKbvJN8FGK15N8FaNuclxAw0o2k1wdigy8xc4yq1ZRacXOo4tbnHWdmvCxZ9hpG+6FftB/gz9+mdGo570IYdvF1anZGEYeMpX+Q6FRlQAAAAAAAAAAAAAAAAAAAAAAAA0PShkr/ABFCcUtrWtHz47UvG1vE3wx2W8J0tOS7UBytRdpWey+x8y5pS3x4bVyM7n1kCVGpKvCPUm+ukvIm3v5N+vwNZjPWtttJbnxNI+YyhfrLf7e9FCFTsez1IvFWT2S2P1HmcHv2Pmr+sgq5OybUxElClFzk+yNn6ZPqx8WbJlDGUcl4erhqFSFbHYmPRV61OTlSwlF+VRpz/eqN72reGrFGq9LVScVNxT2NJtJrgy0erHvfDsHB5exd79hSkepPte8zmaGQJYuqnJPoYNOb+896prn28F4ASnoZyO6VKM5K0qr6V90bWivRt8SWjB5r4DoqadrX8NhnCKAAAAAAAAAAAAAAAAAAAAAAAAHxo+gDT86shKSlJRUoyTUotXTT3pohrOHM6pTbnh05x3unf6SHm/eXr5nSc4pqzNcyxm4p3lDY+AHMk5NXUltWxpq0k+88XXY2iasr5sRnfpsPGfZrOPW8JLaa5XzFwr3KtDzZ395MvRGsn3tni/AkujmHhVv6efc5xS/2xRnsk5qUqbXQ4aKa3Sac5r+aV2OiOsgZoVq7U6qlSpb9qtVmv8sXu5v1kzZoZuRgoKMFCnDcvi+L7zJ5IzataVTnY2ijSUEklZIg9Qikkl2HoAAAAAAAAAAAAAAAAAAAAAAAAAAAAAAA8ToxlvSZa1Ml0X+4i9AFjDJVFfuIuaeHjHdFIqgAAAAAAAAAAAAAAAAAAAAAAAAAAAAAAAAAAAAAAAAAAAAAAAAAAAAAAAAAAAAAAAAAAAAAAAAAAAAAAAAAAAAAAAAAAAAAAAAAAAP/2Q==;clipPath=inset(14.44% 31.33% 14.89% 30%);" parent="1" vertex="1">
          <mxGeometry x="990" y="100" width="39.15" height="71.55" as="geometry" />
        </mxCell>
        <mxCell id="9reZQKUpWbnYwI93RdAQ-33" value="&lt;b&gt;&lt;font style=&quot;font-size: 50px;&quot;&gt;Et&lt;/font&gt;&lt;/b&gt;" style="text;html=1;whiteSpace=wrap;strokeColor=none;fillColor=none;align=center;verticalAlign=middle;rounded=0;" parent="1" vertex="1">
          <mxGeometry x="302" y="361.55" width="60" height="30" as="geometry" />
        </mxCell>
        <mxCell id="9reZQKUpWbnYwI93RdAQ-34" value="&lt;font style=&quot;font-size: 19px;&quot;&gt;Données Signées&lt;/font&gt;" style="text;html=1;whiteSpace=wrap;strokeColor=#d79b00;fillColor=#ffe6cc;align=center;verticalAlign=middle;rounded=0;" parent="1" vertex="1">
          <mxGeometry x="720" y="346.55" width="120" height="60" as="geometry" />
        </mxCell>
        <mxCell id="9reZQKUpWbnYwI93RdAQ-35" value="&lt;b&gt;&lt;font style=&quot;font-size: 50px;&quot;&gt;=&lt;/font&gt;&lt;/b&gt;" style="text;html=1;whiteSpace=wrap;strokeColor=none;fillColor=none;align=center;verticalAlign=middle;rounded=0;" parent="1" vertex="1">
          <mxGeometry x="583" y="361.55" width="60" height="30" as="geometry" />
        </mxCell>
        <mxCell id="9reZQKUpWbnYwI93RdAQ-36" value="&lt;font style=&quot;font-size: 13px;&quot;&gt;&lt;b&gt;Données&lt;/b&gt;&lt;/font&gt;" style="text;html=1;whiteSpace=wrap;strokeColor=none;fillColor=none;align=center;verticalAlign=middle;rounded=0;" parent="1" vertex="1">
          <mxGeometry x="170" y="226" width="60" height="30" as="geometry" />
        </mxCell>
        <mxCell id="9reZQKUpWbnYwI93RdAQ-38" value="&lt;font style=&quot;font-size: 14px;&quot;&gt;Signature&lt;/font&gt;" style="rounded=0;whiteSpace=wrap;html=1;fillColor=#d5e8d4;strokeColor=#82b366;" parent="1" vertex="1">
          <mxGeometry x="393" y="350" width="120" height="60" as="geometry" />
        </mxCell>
        <mxCell id="9reZQKUpWbnYwI93RdAQ-39" value="" style="shape=image;verticalLabelPosition=bottom;labelBackgroundColor=default;verticalAlign=top;aspect=fixed;imageAspect=0;image=data:image/jpeg,/9j/4AAQSkZJRgABAQAAAQABAAD/2wCEAAkGBxAQEg8QEQ8QERIQFQ8OExISDxAODhARFxIYFhUSExMYHSggGBolGxMTITEhJisrLi4uFx8zODMtNygtLisBCgoKDg0OFw8PFTUdFx4tKzUrKzMtKzcrNzcuKzctLTcvNzgrKy03OC0rKy0rKzgtNy0tNy4rLCstNystNy0rK//AABEIAOEA4QMBIgACEQEDEQH/xAAcAAEAAQUBAQAAAAAAAAAAAAAABwMEBQYIAgH/xABEEAACAQIBCAUIBggHAQAAAAAAAQIDEQQFBgcSITFRcRMiQWGBMnKRobGywcIjMzVSc4MkJTRCdIKS8BRiZKKz0eFj/8QAGAEBAQEBAQAAAAAAAAAAAAAAAAECBAP/xAAdEQEBAQEAAgMBAAAAAAAAAAAAAQIRBFESMUED/9oADAMBAAIRAxEAPwCcQAAAAAAAAAAAAAAAAAAAAAAAAAAAAAAAAAAAAAAAAAAAAAAAAAAAAAAAAAAAAAAAAAAAAAAAAAAAAAAAAAAAAAAAAAAAAAAwed2c9DJtHpat5zm9SlRh9bWqdkYrhtV32c7JhmqlSMU5SailtbbSSXFs1bKGkfJFBtSx1OTWx9DGpibPhelGSInzwyjWrvXyriJXfXp5OoS1adKO+PTPdrc7y5blpdfKtG9oUacV2KznL0veB0Pg9J+Rqr1VjowfGrSr4eP9VSKXrNqwuKp1YqdKpCpCW1ThKM4PlJbGck/4qlJ2cVF/0syGRcq4vJ8+mwVeVPbeUV1qVTuqU90ue/g0B1YDUNHufVHKtNqypYmkk6tG91bd0lN9sG/FPY+xvbwAAAAAAAAAAAAAAAAAAAAAAAAAAAAAD43baQdlnONVJ4rLE7SUJywOTIPbBJeViLcdt+bt2IlHP/HOhk/Gzi7S6GrGL7U5R1U/Wc9Z24jVw+TqK8mnh+la/wA9SblJ+wDzkDItXKVWdWrOfRKT153+kqze1xi/FXff6JQyPmwqcVGhQjTXdHrPvct7fMyOjrNuMMPh01sjCLey2tNrWk/FtkiU6MYqySQEY5RzdlKLVWjGpHhKKkvWR1nJm28JetRT6G6U6bvJ0r7LpvfHnu9nSk6aexpM1LOzIMJQk1G8ZJxkuxpqzQEAZOylVwGIoY2h5UHrat7RnHdOlLuauvQ+w6kyZjqeJo0cRSd6daEKsHxjKKav37TlzEYVrD1k9vQVuiv6V8pNmhDHOpkynCTbdGpXpLzddyivBTS8AJBAAAAAAAAAAAAAAAAAAAAAAAAAAAAAaZpYf6uxPmfMiAc7vIw38NT9jJ+0sfZ+J8z5kc/52PqYf+Hp/EDprNOCWGo98Ie6jMmIzV/ZqPmQ91GXAFrlKN6cuRdFvj/q5cgOZ8d9TlJf6v56hJugSX6HUX/2q+7AjHHv6LKP8W/fqEm6BP2Sp+NV9kQJUAAAAAAAAAAAAAAAAAAAAAAAAAAAAxOcWceFyfCNTE1dRTerFKMpzk7Xdox22XHdtXEDBaWPs/E+Z8yOfs6n1MP/AA8PiSjn7pGwOMwtbD0VWcpx1VKUYQhvv96/ZwIpy7VjVhh9V7qSpyXbGSbA6hzU/ZqHmQ91GYOe8NpWxtOlClDoaerGMbqk5S2K2+Ta9RY4rSJlOre+Kr/lqNH/AI0i8HSRisr5Ww1OElPEUIOz2SrU4v0NnNGMy5i6v1k60/xKs5+8zHzxVTilyQ4MtjqidLKNmn+k6+zb1XOdpctqNn0ZZ+4XJmFnTrQqym6lSaUFG1mo22t93Ajmcnt2vbv27+ZSkB0nmVpIw2U6sqCpzo1LOVOM2p9JFK8tq3NcOHabuc0aH6jjlOi19ysvTA6WiyD6AAAAAAAAAAAAAAAAAAAAAAAAQdp2ra2Iwq+7TqL/AHonEgnTf+00PMn7yLBHuDhFtXSa5XN3wOBw+qv0eje290oN+mxpOFN6wj2R81ewqKGLpwj5MYrlFL2GExbMxlGqoptmvYmtJ3aXqbJbwWlcs6h6rV5Pcr9uxN7OJbUqzle9tltw6EinIqMpSKNx0SL9Y0u6NV+q3xOmYbkc2aHFfKC/Cqe9A6TjuRlX0AAAAAAAAAAAAAAAAAAAAAAAAgzThD6fDvjGqvQ4/wDZOZCOnRfS4XlW+QsSo2w+5837DdcPLZHzY+w0qh5L5v2G30pdWnyh7EUW2WXsXnL2MrZMwqdOMuOt7WW2VXsXP4Mp0ctRpU4wcZNq6urW2tvj3nF52N7xJifrn8jOtZkz7UMFi6FPCy6tTWlCSlPopOLm4tWc91k3Y1TCfveHxM5LLFqHQ6ruoOn2ajVrXZhcNHY3xN+Pi5u7Zzt9t/yzZ8rZ916ZSZVe8ps6nq3nQyv1h+VU96B0gjm/Qv8AaH5NT34HSCMq+gAAAAAAAAAAAAAAAAAAAAAAAEJ6dPrcLyr/ACE2EKadPrML+d8hYlRpQ8iXN+xGzwl1af8AJ7EaxR8iXP4I2KEurT/k+BR6xaT38zE4ilHh7S8ynjI01d73uit7/wDDA1MdUnutFctZ+sg91aUeCLeoHUn2tPwsJ7VcCh2lJlbtKLKN70L/AGh+TU9+B0ejnHQt9oP8GfvwOjkZV9AAAAAAAAAAAAAAAAAAAAAAAAIV06fWYX875CaiHdOVC6oVPuzlH+qN/kEEV0fIlz+CM7F9WnziYGg+rJd9zJLE9Wn3arNIwuLrOrVlJ7ttu6K3L++LPpRitWcovvXo/tlYyr4z3Q327JbH8P77zwZTNrJ0sTiKVOKbvJN8FGK15N8FaNuclxAw0o2k1wdigy8xc4yq1ZRacXOo4tbnHWdmvCxZ9hpG+6FftB/gz9+mdGo570IYdvF1anZGEYeMpX+Q6FRlQAAAAAAAAAAAAAAAAAAAAAAAA0PShkr/ABFCcUtrWtHz47UvG1vE3wx2W8J0tOS7UBytRdpWey+x8y5pS3x4bVyM7n1kCVGpKvCPUm+ukvIm3v5N+vwNZjPWtttJbnxNI+YyhfrLf7e9FCFTsez1IvFWT2S2P1HmcHv2Pmr+sgq5OybUxElClFzk+yNn6ZPqx8WbJlDGUcl4erhqFSFbHYmPRV61OTlSwlF+VRpz/eqN72reGrFGq9LVScVNxT2NJtJrgy0erHvfDsHB5exd79hSkepPte8zmaGQJYuqnJPoYNOb+896prn28F4ASnoZyO6VKM5K0qr6V90bWivRt8SWjB5r4DoqadrX8NhnCKAAAAAAAAAAAAAAAAAAAAAAAAHxo+gDT86shKSlJRUoyTUotXTT3pohrOHM6pTbnh05x3unf6SHm/eXr5nSc4pqzNcyxm4p3lDY+AHMk5NXUltWxpq0k+88XXY2iasr5sRnfpsPGfZrOPW8JLaa5XzFwr3KtDzZ395MvRGsn3tni/AkujmHhVv6efc5xS/2xRnsk5qUqbXQ4aKa3Sac5r+aV2OiOsgZoVq7U6qlSpb9qtVmv8sXu5v1kzZoZuRgoKMFCnDcvi+L7zJ5IzataVTnY2ijSUEklZIg9Qikkl2HoAAAAAAAAAAAAAAAAAAAAAAAAAAAAAAA8ToxlvSZa1Ml0X+4i9AFjDJVFfuIuaeHjHdFIqgAAAAAAAAAAAAAAAAAAAAAAAAAAAAAAAAAAAAAAAAAAAAAAAAAAAAAAAAAAAAAAAAAAAAAAAAAAAAAAAAAAAAAAAAAAAAAAAAAAAP/2Q==;clipPath=inset(14.44% 31.33% 14.89% 30%);" parent="1" vertex="1">
          <mxGeometry x="483.8499999999999" y="320" width="39.15" height="71.55" as="geometry" />
        </mxCell>
        <mxCell id="9reZQKUpWbnYwI93RdAQ-40" value="&lt;div&gt;&lt;font style=&quot;font-size: 14px;&quot;&gt;&lt;br&gt;&lt;/font&gt;&lt;/div&gt;&lt;div&gt;&lt;font style=&quot;font-size: 14px;&quot;&gt;&lt;br&gt;&lt;/font&gt;&lt;/div&gt;&lt;div&gt;&lt;font style=&quot;font-size: 14px;&quot;&gt;&lt;br&gt;&lt;/font&gt;&lt;/div&gt;&lt;font style=&quot;font-size: 14px;&quot;&gt;Je me porte&amp;nbsp;&lt;/font&gt;&lt;div&gt;&lt;font style=&quot;font-size: 14px;&quot;&gt;garant en cas de démission du concerné&lt;/font&gt;&lt;/div&gt;" style="shape=note;whiteSpace=wrap;html=1;backgroundOutline=1;darkOpacity=0.05;fillColor=#dae8fc;strokeColor=#6c8ebf;" parent="1" vertex="1">
          <mxGeometry x="162" y="292" width="90" height="130" as="geometry" />
        </mxCell>
        <mxCell id="9reZQKUpWbnYwI93RdAQ-41" value="&lt;font style=&quot;font-size: 13px;&quot;&gt;&lt;b&gt;Données&lt;/b&gt;&lt;/font&gt;" style="text;html=1;whiteSpace=wrap;strokeColor=none;fillColor=none;align=center;verticalAlign=middle;rounded=0;" parent="1" vertex="1">
          <mxGeometry x="172" y="422" width="60" height="30" as="geometry" />
        </mxCell>
        <mxCell id="9reZQKUpWbnYwI93RdAQ-42" value="" style="endArrow=none;html=1;rounded=0;strokeWidth=27;" parent="1" edge="1">
          <mxGeometry width="50" height="50" relative="1" as="geometry">
            <mxPoint x="130" y="452" as="sourcePoint" />
            <mxPoint x="130" y="82" as="targetPoint" />
          </mxGeometry>
        </mxCell>
        <mxCell id="9reZQKUpWbnYwI93RdAQ-43" value="&lt;b&gt;&lt;font style=&quot;font-size: 34px;&quot;&gt;Signature des données&lt;/font&gt;&lt;/b&gt;" style="text;html=1;whiteSpace=wrap;strokeColor=none;fillColor=none;align=center;verticalAlign=middle;rounded=0;rotation=-90;strokeWidth=3;" parent="1" vertex="1">
          <mxGeometry x="-108" y="253" width="410" height="30" as="geometry" />
        </mxCell>
        <mxCell id="9reZQKUpWbnYwI93RdAQ-44" value="" style="endArrow=none;html=1;rounded=0;strokeWidth=27;" parent="1" edge="1">
          <mxGeometry width="50" height="50" relative="1" as="geometry">
            <mxPoint x="130" y="980" as="sourcePoint" />
            <mxPoint x="130" y="490" as="targetPoint" />
          </mxGeometry>
        </mxCell>
        <mxCell id="9reZQKUpWbnYwI93RdAQ-45" value="&lt;b&gt;&lt;font style=&quot;font-size: 34px;&quot;&gt;Vérification&lt;/font&gt;&lt;/b&gt;" style="text;html=1;whiteSpace=wrap;strokeColor=none;fillColor=none;align=center;verticalAlign=middle;rounded=0;rotation=-90;strokeWidth=3;" parent="1" vertex="1">
          <mxGeometry x="-107.99999999999999" y="720" width="410" height="30" as="geometry" />
        </mxCell>
        <mxCell id="9reZQKUpWbnYwI93RdAQ-46" value="&lt;font style=&quot;font-size: 19px;&quot;&gt;Données Signées&lt;/font&gt;" style="text;html=1;whiteSpace=wrap;strokeColor=#d79b00;fillColor=#ffe6cc;align=center;verticalAlign=middle;rounded=0;" parent="1" vertex="1">
          <mxGeometry x="170" y="670" width="120" height="60" as="geometry" />
        </mxCell>
        <mxCell id="9reZQKUpWbnYwI93RdAQ-48" value="" style="shape=curlyBracket;whiteSpace=wrap;html=1;rounded=1;labelPosition=left;verticalLabelPosition=middle;align=right;verticalAlign=middle;strokeWidth=5;rotation=90;" parent="1" vertex="1">
          <mxGeometry x="711.44" y="184.37" width="20" height="617.09" as="geometry" />
        </mxCell>
        <mxCell id="9reZQKUpWbnYwI93RdAQ-70" style="edgeStyle=orthogonalEdgeStyle;rounded=0;orthogonalLoop=1;jettySize=auto;html=1;entryX=0.5;entryY=0;entryDx=0;entryDy=0;" parent="1" source="9reZQKUpWbnYwI93RdAQ-50" target="9reZQKUpWbnYwI93RdAQ-57" edge="1">
          <mxGeometry relative="1" as="geometry" />
        </mxCell>
        <mxCell id="9reZQKUpWbnYwI93RdAQ-50" value="&lt;div&gt;&lt;font style=&quot;font-size: 14px;&quot;&gt;&lt;br&gt;&lt;/font&gt;&lt;/div&gt;&lt;div&gt;&lt;font style=&quot;font-size: 14px;&quot;&gt;&lt;br&gt;&lt;/font&gt;&lt;/div&gt;&lt;div&gt;&lt;font style=&quot;font-size: 14px;&quot;&gt;&lt;br&gt;&lt;/font&gt;&lt;/div&gt;&lt;font style=&quot;font-size: 14px;&quot;&gt;Je me porte&amp;nbsp;&lt;/font&gt;&lt;div&gt;&lt;font style=&quot;font-size: 14px;&quot;&gt;garant en cas de démission du concerné&lt;/font&gt;&lt;/div&gt;" style="shape=note;whiteSpace=wrap;html=1;backgroundOutline=1;darkOpacity=0.05;fillColor=#dae8fc;strokeColor=#6c8ebf;" parent="1" vertex="1">
          <mxGeometry x="442" y="520" width="90" height="130" as="geometry" />
        </mxCell>
        <mxCell id="9reZQKUpWbnYwI93RdAQ-51" value="&lt;font style=&quot;font-size: 13px;&quot;&gt;&lt;b&gt;Données&lt;/b&gt;&lt;/font&gt;" style="text;html=1;whiteSpace=wrap;strokeColor=none;fillColor=none;align=center;verticalAlign=middle;rounded=0;" parent="1" vertex="1">
          <mxGeometry x="457" y="650" width="60" height="30" as="geometry" />
        </mxCell>
        <mxCell id="9reZQKUpWbnYwI93RdAQ-72" style="edgeStyle=orthogonalEdgeStyle;rounded=0;orthogonalLoop=1;jettySize=auto;html=1;entryX=0.5;entryY=0;entryDx=0;entryDy=0;" parent="1" source="9reZQKUpWbnYwI93RdAQ-52" target="9reZQKUpWbnYwI93RdAQ-54" edge="1">
          <mxGeometry relative="1" as="geometry" />
        </mxCell>
        <mxCell id="9reZQKUpWbnYwI93RdAQ-52" value="&lt;font style=&quot;font-size: 14px;&quot;&gt;Signature&lt;/font&gt;" style="rounded=0;whiteSpace=wrap;html=1;fillColor=#d5e8d4;strokeColor=#82b366;" parent="1" vertex="1">
          <mxGeometry x="870" y="550" width="120" height="60" as="geometry" />
        </mxCell>
        <mxCell id="9reZQKUpWbnYwI93RdAQ-53" value="" style="shape=image;verticalLabelPosition=bottom;labelBackgroundColor=default;verticalAlign=top;aspect=fixed;imageAspect=0;image=data:image/jpeg,/9j/4AAQSkZJRgABAQAAAQABAAD/2wCEAAkGBxAQEg8QEQ8QERIQFQ8OExISDxAODhARFxIYFhUSExMYHSggGBolGxMTITEhJisrLi4uFx8zODMtNygtLisBCgoKDg0OFw8PFTUdFx4tKzUrKzMtKzcrNzcuKzctLTcvNzgrKy03OC0rKy0rKzgtNy0tNy4rLCstNystNy0rK//AABEIAOEA4QMBIgACEQEDEQH/xAAcAAEAAQUBAQAAAAAAAAAAAAAABwMEBQYIAgH/xABEEAACAQIBCAUIBggHAQAAAAAAAQIDEQQFBgcSITFRcRMiQWGBMnKRobGywcIjMzVSc4MkJTRCdIKS8BRiZKKz0eFj/8QAGAEBAQEBAQAAAAAAAAAAAAAAAAECBAP/xAAdEQEBAQEAAgMBAAAAAAAAAAAAAQIRBFESMUED/9oADAMBAAIRAxEAPwCcQAAAAAAAAAAAAAAAAAAAAAAAAAAAAAAAAAAAAAAAAAAAAAAAAAAAAAAAAAAAAAAAAAAAAAAAAAAAAAAAAAAAAAAAAAAAAAAwed2c9DJtHpat5zm9SlRh9bWqdkYrhtV32c7JhmqlSMU5SailtbbSSXFs1bKGkfJFBtSx1OTWx9DGpibPhelGSInzwyjWrvXyriJXfXp5OoS1adKO+PTPdrc7y5blpdfKtG9oUacV2KznL0veB0Pg9J+Rqr1VjowfGrSr4eP9VSKXrNqwuKp1YqdKpCpCW1ThKM4PlJbGck/4qlJ2cVF/0syGRcq4vJ8+mwVeVPbeUV1qVTuqU90ue/g0B1YDUNHufVHKtNqypYmkk6tG91bd0lN9sG/FPY+xvbwAAAAAAAAAAAAAAAAAAAAAAAAAAAAAD43baQdlnONVJ4rLE7SUJywOTIPbBJeViLcdt+bt2IlHP/HOhk/Gzi7S6GrGL7U5R1U/Wc9Z24jVw+TqK8mnh+la/wA9SblJ+wDzkDItXKVWdWrOfRKT153+kqze1xi/FXff6JQyPmwqcVGhQjTXdHrPvct7fMyOjrNuMMPh01sjCLey2tNrWk/FtkiU6MYqySQEY5RzdlKLVWjGpHhKKkvWR1nJm28JetRT6G6U6bvJ0r7LpvfHnu9nSk6aexpM1LOzIMJQk1G8ZJxkuxpqzQEAZOylVwGIoY2h5UHrat7RnHdOlLuauvQ+w6kyZjqeJo0cRSd6daEKsHxjKKav37TlzEYVrD1k9vQVuiv6V8pNmhDHOpkynCTbdGpXpLzddyivBTS8AJBAAAAAAAAAAAAAAAAAAAAAAAAAAAAAaZpYf6uxPmfMiAc7vIw38NT9jJ+0sfZ+J8z5kc/52PqYf+Hp/EDprNOCWGo98Ie6jMmIzV/ZqPmQ91GXAFrlKN6cuRdFvj/q5cgOZ8d9TlJf6v56hJugSX6HUX/2q+7AjHHv6LKP8W/fqEm6BP2Sp+NV9kQJUAAAAAAAAAAAAAAAAAAAAAAAAAAAAxOcWceFyfCNTE1dRTerFKMpzk7Xdox22XHdtXEDBaWPs/E+Z8yOfs6n1MP/AA8PiSjn7pGwOMwtbD0VWcpx1VKUYQhvv96/ZwIpy7VjVhh9V7qSpyXbGSbA6hzU/ZqHmQ91GYOe8NpWxtOlClDoaerGMbqk5S2K2+Ta9RY4rSJlOre+Kr/lqNH/AI0i8HSRisr5Ww1OElPEUIOz2SrU4v0NnNGMy5i6v1k60/xKs5+8zHzxVTilyQ4MtjqidLKNmn+k6+zb1XOdpctqNn0ZZ+4XJmFnTrQqym6lSaUFG1mo22t93Ajmcnt2vbv27+ZSkB0nmVpIw2U6sqCpzo1LOVOM2p9JFK8tq3NcOHabuc0aH6jjlOi19ysvTA6WiyD6AAAAAAAAAAAAAAAAAAAAAAAAQdp2ra2Iwq+7TqL/AHonEgnTf+00PMn7yLBHuDhFtXSa5XN3wOBw+qv0eje290oN+mxpOFN6wj2R81ewqKGLpwj5MYrlFL2GExbMxlGqoptmvYmtJ3aXqbJbwWlcs6h6rV5Pcr9uxN7OJbUqzle9tltw6EinIqMpSKNx0SL9Y0u6NV+q3xOmYbkc2aHFfKC/Cqe9A6TjuRlX0AAAAAAAAAAAAAAAAAAAAAAAAgzThD6fDvjGqvQ4/wDZOZCOnRfS4XlW+QsSo2w+5837DdcPLZHzY+w0qh5L5v2G30pdWnyh7EUW2WXsXnL2MrZMwqdOMuOt7WW2VXsXP4Mp0ctRpU4wcZNq6urW2tvj3nF52N7xJifrn8jOtZkz7UMFi6FPCy6tTWlCSlPopOLm4tWc91k3Y1TCfveHxM5LLFqHQ6ruoOn2ajVrXZhcNHY3xN+Pi5u7Zzt9t/yzZ8rZ916ZSZVe8ps6nq3nQyv1h+VU96B0gjm/Qv8AaH5NT34HSCMq+gAAAAAAAAAAAAAAAAAAAAAAAEJ6dPrcLyr/ACE2EKadPrML+d8hYlRpQ8iXN+xGzwl1af8AJ7EaxR8iXP4I2KEurT/k+BR6xaT38zE4ilHh7S8ynjI01d73uit7/wDDA1MdUnutFctZ+sg91aUeCLeoHUn2tPwsJ7VcCh2lJlbtKLKN70L/AGh+TU9+B0ejnHQt9oP8GfvwOjkZV9AAAAAAAAAAAAAAAAAAAAAAAAIV06fWYX875CaiHdOVC6oVPuzlH+qN/kEEV0fIlz+CM7F9WnziYGg+rJd9zJLE9Wn3arNIwuLrOrVlJ7ttu6K3L++LPpRitWcovvXo/tlYyr4z3Q327JbH8P77zwZTNrJ0sTiKVOKbvJN8FGK15N8FaNuclxAw0o2k1wdigy8xc4yq1ZRacXOo4tbnHWdmvCxZ9hpG+6FftB/gz9+mdGo570IYdvF1anZGEYeMpX+Q6FRlQAAAAAAAAAAAAAAAAAAAAAAAA0PShkr/ABFCcUtrWtHz47UvG1vE3wx2W8J0tOS7UBytRdpWey+x8y5pS3x4bVyM7n1kCVGpKvCPUm+ukvIm3v5N+vwNZjPWtttJbnxNI+YyhfrLf7e9FCFTsez1IvFWT2S2P1HmcHv2Pmr+sgq5OybUxElClFzk+yNn6ZPqx8WbJlDGUcl4erhqFSFbHYmPRV61OTlSwlF+VRpz/eqN72reGrFGq9LVScVNxT2NJtJrgy0erHvfDsHB5exd79hSkepPte8zmaGQJYuqnJPoYNOb+896prn28F4ASnoZyO6VKM5K0qr6V90bWivRt8SWjB5r4DoqadrX8NhnCKAAAAAAAAAAAAAAAAAAAAAAAAHxo+gDT86shKSlJRUoyTUotXTT3pohrOHM6pTbnh05x3unf6SHm/eXr5nSc4pqzNcyxm4p3lDY+AHMk5NXUltWxpq0k+88XXY2iasr5sRnfpsPGfZrOPW8JLaa5XzFwr3KtDzZ395MvRGsn3tni/AkujmHhVv6efc5xS/2xRnsk5qUqbXQ4aKa3Sac5r+aV2OiOsgZoVq7U6qlSpb9qtVmv8sXu5v1kzZoZuRgoKMFCnDcvi+L7zJ5IzataVTnY2ijSUEklZIg9Qikkl2HoAAAAAAAAAAAAAAAAAAAAAAAAAAAAAAA8ToxlvSZa1Ml0X+4i9AFjDJVFfuIuaeHjHdFIqgAAAAAAAAAAAAAAAAAAAAAAAAAAAAAAAAAAAAAAAAAAAAAAAAAAAAAAAAAAAAAAAAAAAAAAAAAAAAAAAAAAAAAAAAAAAAAAAAAAAP/2Q==;clipPath=inset(14.44% 31.33% 14.89% 30%);" parent="1" vertex="1">
          <mxGeometry x="960.8499999999999" y="520" width="39.15" height="71.55" as="geometry" />
        </mxCell>
        <mxCell id="9reZQKUpWbnYwI93RdAQ-54" value="&lt;font style=&quot;font-size: 14px;&quot;&gt;Déchiffrement de la signature par la clé publique&lt;/font&gt;" style="rounded=0;whiteSpace=wrap;html=1;fillColor=#f5f5f5;fontColor=#333333;strokeColor=#666666;" parent="1" vertex="1">
          <mxGeometry x="860.0000000000001" y="727.1800000000001" width="140" height="60" as="geometry" />
        </mxCell>
        <mxCell id="9reZQKUpWbnYwI93RdAQ-55" value="" style="shape=image;verticalLabelPosition=bottom;labelBackgroundColor=default;verticalAlign=top;aspect=fixed;imageAspect=0;image=data:image/png,iVBORw0KGgoAAAANSUhEUgAAAOEAAADhCAMAAAAJbSJIAAABI1BMVEX///8aGhrvnDIAAAAbGxv8/PwXFxcTExP6///f39+3t7c/Pz/wnC7xnjQfHx/NgiLylR722LXJycnv7+/n5+fW1tYJCQnu7u7Pz8/19fXHx8c2Njarq6v2woz7/fna2tqLi4tkZGSbm5t8fHxLS0spKSm1tbVYWFiGhoaUlJR2dnZtbW06OjqoqKhgYGBRUVHppEr/+e7usFn31avI0s4uLi756Nb007jxx5vu1KzulhDuoyrquG763sP0wn7umyPuoz/01aTxljTxz5j27Nzv27b4lyjpmg/IiCLZex7bjCzulin4mBb46drNhzfPfSf2sGrryHnxlz7hs4bioTvFyNXirGbwtlvI0Lv6687sw4Hgr3TSxcHbupjxqEnWwaz3s2isJqIqAAALrklEQVR4nO2dDVvbRhLHZY1WkrGsurIlSwYEGIMxxoAhUGoDMoSXXp30ci3Jlcull+//KW5Wso1fJGMFWr10f88TYhziZ/+Z2dmZXc2G4xgMBoPBYDAYDAaDwWAwGAwGIzEQn1epwypa7u+plGhVdnJAMfYbetSDeW3QYqWdDICUETKZjCgBLK8QLkWWJJy1DiBmxpBgaxvNGvXIXgnCmVuQmUaE/WLUI3sVCCHcCrqn659j4LeGquMfRz3AF4MSqpMO+iRSgrUUKOS4bRAFIUCiVIqhwnD/6oTLzk7BkUJB2oujwjBBHn9yT/I3oIsKO8meioQjO8EmpFYUYzcVMW6cqCEAEMQ5NswIRjNu6/4OSGII5hnQA0pRS5pkHTLq86NeAMzcDFc/NKLWNAahAjMzi3d41Awsr1d3ATKCKtWiljXGM2EjBLBEP8/aBEEQIEbJWwtebL2BwIqbzhGuaWQE+k1cWEGvGnNRITPx7eIYG8NPLItSBlai1DQBzTAzTwmYkPnWGYk+Olwh6pIA1UhVjUOsySSalutuRRtaoT5SiDM7VsGUQ4nomCqm0kIGdq1yHUQRTmhxNDLrIgorI4VNI042dKESDQkzFRwYoeujWiFY4IoSGgO1L6TQ2BwqtFQxTvOQGzgqbKIwnEsWsbB0sGj2uQm1Na4yWMOfBZPRweet479XnGKpxwo1XiU7+aa7ppWb8MS8kkISvM02jFy4WsQsbaOQwGS5WC4O2ZeCFaKPN7crrRpNIMT4lYiECiSTNY+neUL5Lri5Z+BcpGamL9DnEwlBhbDVWNs1hIAtjCGQ1N1hkt2poEXL4zmC75Ssxa0+XBTXiwmtRuYrjF8kDQsR5q0gAuxHPcCXo80rSCS1nILTi8acohK0qEf3KmyCf8KqCrAd9dheA0ILCN+5KNEqKvEu6h3NtAxjtvCAE306cUgsmJ/XMbtRR4s/xlcDNq3kx5gh1FBaHbO0weawhCnbbjY1BvSg59ytuuqVHSfNbWuQ36YNq7xmmtly+oQNSa+yEd7E+xsIZTAYDAaDwWAwGAwGg8FgMBgMBiMNpKqx8u9IMWtWKno2La2jT3heqTdyGe+EdKveKqfshBSVLNXoKbd7iO+2OjdTdsq9VqOH+N4pvkDxnlRIB9ROVfB5nBZUM2y/Zkwh9KEo/yeGtlOhkD5L6/8IvypSiVGP78UQbl47WPKfLkWW5vW7iWI56vG9GEuc1yWrGrF7ghYjQ2ktuzhmzXj2Keh4TUVi1SEU0jPP6seqhZRi1cIJpN2+wQrpn8SqG4FYRF9ZCsP2SnUz57PaC6LbUUKzONiJWtYT3zZfLG22b0bAnK1ibtfdMLsco3lo7e/lQrKsGj6rhXTiNYa5bbdx6uxqgBQav0sHRMiOPlGMVTTVXqlZnV734X0i2UKFrWhVTVCBicAo0RgihG/ofrKaVZcyUM02zJhUUmQg0RUlCnCQo31b4rCwXVin2+lMc4ddScJ5WNUA1F09DjtUxJWI84h2wwqwwpF1EA1jX6TRUlqwRZYq9EqKBtBrIwSorp3QhXMj++wA/nSBAyuK0KSdzSZ9oyLtlzhrAyTYakqB7ZRT0GSUkAOAWkvyOp2tJfwuHk3dVCIOaQlypeEblO29dXS6g/FYO89nqREPqKIm9VLT/Qgth2YMdYHRnwItyXUNR1EatIPQ3aTB09v4tbW3PGJeSSECVo1QIU3a3e/e/EGlodfWIu8yIU9fh1+8ruDBTR5jNA1VVANkwraOnlBU6YLvpd7uX15CiQna1mgaOFdF3+ZDUeVyUOdOvE7nsdmHM2A3uhGHZROkZoW0/JIEWM8CZKue+omkbQUS1LBnLbn72lt++4h6A2qcQfeG6U0u4365C0Yx6qkYCuIl15M+mpGsA6ia1LoqpqgTN9MSCTYTppCrzaySUg51mF7zLKxPbZlitIlRrbEQ2elgIxh1DqDYpE2XRm768IIsx+y+mgVYmrp0QDA2LACybwiiaMzaqwpbEQzyJbhTcdJL96nCDSMjYZ1oTf90CSD6BDUcBK0ojVlRkA7QS0u7Bm0EnokqhOTidSXPIhBOXx4zoyAtky2otGDD8g2azTjtTS0GXQSq8HTAJoDVhMbatm+WTbCo2ph9O+ZQIVbjxN0+FEVM5tCAOf8qgra2Y0KXTIjeqC+rYkbd29AwnKwF/dxKMhUOayyraLnRMxeUYifTSz3I+Es3dfGdhhhpEnqv0jiEGnHfP//EpGbprx7P60PvWABo+UrUk5eYBrAJoBOfJxWacBDFcF4fgn5qrM0uGSakwUkphJS3wNuRHMfaMhJ7+dcspS13i5R4N9m5O1lWzUjLLKQQLPVhb/S8Cd1fRs1peP5kCCHuxn6u5f33AcUKfURgxm+TTnbDvbDmYH+/JuCLeopc1APtlV1Xhw81bKTjbrMJvI3yUqXVqG6b0R9aMBgMBoPBYDAYDAaDwVgQmf6SOdt7lS5sW+bapz+cId8/WpxNSLo02rLc/vGr06E4Tr97fmHLdtSDekVQTPtS6Tg9nufzvKLkeafTu0rRrhOxyVWvcM1PcN05epTbUQ/tlZDJeYfvdicVdvl+4SolU1FuHxbQNfkpG+I7hUuOS/5slG1y2M9P6xvQWZWTPxtt8rXPBwhEiVdRj88H217csaiB3qKL5oMU5u8f47aT7527ywvCEfnGCbYgohzK8ZJIOPnm4uKH7xfl9m33LmgSegGnE7OAijY57LwrLI5zfa1c+zuoa1uF70WtaRybk98/XOfD4iuwq/DXebpG3j/GyEuJ/P6nf3wXkp9/9pOo3PU79++odfvnUcsaw37/yz+/+yW0Qh99zuFFm5yeoSH56158cjd00XlBw58872NC5QNdcWT5lO/jmngTtbAR8r/uMPsKCe8zD5VemwZQm3C3Tj5fuI1a2Aj5ffe6+zReugp0Z0a/CP23bnGIKu3DPl84jlrYCNt+37v79clRu47zbRILj65CjKHFc4V3fjMHF5xFH1Rt++bhbqSpwK9eOn0aNsLOzs6pl3CXzY+fqEINMUvR68Pl0JZvete4SN/jF+fhkZNvu07n6PjfDt/v9u+weF9Ma/9Ypq2nesU0j+4U58wq6VRkLJ4WInYbfVM5e+gXPrhB/vT82Jbls75TOL86cpTeQgppMspZpvZ79rSQV9xIY5VMs6LHwIwEHfWQP5VP/1ilNYaN6uib8s3lLZbyq05hFEP78yQ6qxwxTdNqHyp8t/Do3b+XRVeN/uIB6qjt6RWa7n/iL2Jzj/9ZHXLZ62G0DfBa5fpS10z79tDB18rw84qxkDgXe7xyuvSs6K/x/rNmfuo6d3RSfhrUm2hGUzNj4KhzIOjEAwh32UdPPXpwfG3o/Nf80sHf8HXh+Kl8wrkZh7k4j6fBymedP67a3EW/65O2KR/eaG5Q6vJ9pT1WIFqalo3DurgIstymWwH2UeHX2azA+fLmf84w6IxtfhOuVNGshEgkqA6RLxSfXRp00t/caYqhqD3ZkKBrgQ1RceXcZyZ2NfPIC0Hvfpz6cQyoMY+n09h2fsZLlZ5pHroKO5czf0HXEtYkS+THmRVDefho9qiX9o/aM1OurJlRjPNFnD70lfx4yqr0UCGv5J1Dv+41TSv+9WN8GfJprzBZf+S1j0f9bueTz/4FQTeNRQoeBiLb585EvFF+//j57v7Y/9Aim7SJ6PH4tYCu2leouyqK8+Xjl69BG1AlLU43KS4KpuW3l3wBC68+qnQ6n9+YdtBedzIVEvdBhcfjy6Ojo6+rx482hpOgA55kKpxhLVhGKXlZjR+YYgfdIJzAWOrLWtDCjkVi8m9PpqAQf2csx70KXphywOZa4vLSYLK+EkuJqy3moJuVGYlukZ8SL+WoQ2r6pMFQYPIqi2AIumTFHL/NjG6ZpqzPsmhqpqaXqCFJMWtifE2TOo+SqbkHM1rFPZ5JlwG5we1DWd2Tp5dTpm4MYiHplfd3gVmQwWAwGAwGA/k/juoH5tkd9nQAAAAASUVORK5CYII=;clipPath=inset(38.44% 22% 36.22% 27.78%);rotation=-90;" parent="1" vertex="1">
          <mxGeometry x="983.1749999999998" y="722.0049999999999" width="39.65" height="20" as="geometry" />
        </mxCell>
        <mxCell id="9reZQKUpWbnYwI93RdAQ-57" value="&lt;font style=&quot;font-size: 14px;&quot;&gt;Hachage&lt;/font&gt;" style="label;whiteSpace=wrap;html=1;image=img/clipart/Gear_128x128.png" parent="1" vertex="1">
          <mxGeometry x="417" y="730" width="140" height="60" as="geometry" />
        </mxCell>
        <mxCell id="9reZQKUpWbnYwI93RdAQ-61" value="&lt;font style=&quot;font-size: 14px;&quot;&gt;jh#56fd5&lt;/font&gt;&lt;div&gt;&lt;font style=&quot;font-size: 14px;&quot;&gt;6fr7/#ml5&lt;/font&gt;&lt;/div&gt;" style="shape=note;whiteSpace=wrap;html=1;backgroundOutline=1;darkOpacity=0.05;" parent="1" vertex="1">
          <mxGeometry x="467" y="840" width="70" height="100" as="geometry" />
        </mxCell>
        <mxCell id="9reZQKUpWbnYwI93RdAQ-62" value="&lt;font style=&quot;font-size: 14px;&quot;&gt;&lt;b&gt;Empreinte&lt;/b&gt;&lt;/font&gt;" style="text;html=1;whiteSpace=wrap;strokeColor=none;fillColor=none;align=center;verticalAlign=middle;rounded=0;" parent="1" vertex="1">
          <mxGeometry x="469" y="948" width="60" height="30" as="geometry" />
        </mxCell>
        <mxCell id="9reZQKUpWbnYwI93RdAQ-64" value="" style="shape=note;whiteSpace=wrap;html=1;backgroundOutline=1;darkOpacity=0.05;" parent="1" vertex="1">
          <mxGeometry x="910" y="840" width="70" height="100" as="geometry" />
        </mxCell>
        <mxCell id="9reZQKUpWbnYwI93RdAQ-65" value="&lt;span style=&quot;font-size: 14px;&quot;&gt;&lt;b&gt;Emprinte 1&lt;/b&gt;&lt;/span&gt;" style="text;html=1;whiteSpace=wrap;strokeColor=none;fillColor=none;align=center;verticalAlign=middle;rounded=0;" parent="1" vertex="1">
          <mxGeometry x="910" y="948" width="74.85" height="30" as="geometry" />
        </mxCell>
        <mxCell id="9reZQKUpWbnYwI93RdAQ-69" value="&lt;b&gt;&lt;font style=&quot;font-size: 50px;&quot;&gt;=&lt;/font&gt;&lt;/b&gt;" style="text;html=1;whiteSpace=wrap;strokeColor=none;fillColor=none;align=center;verticalAlign=middle;rounded=0;" parent="1" vertex="1">
          <mxGeometry x="631.44" y="880" width="158.56" height="30" as="geometry" />
        </mxCell>
        <mxCell id="9reZQKUpWbnYwI93RdAQ-71" value="" style="endArrow=classic;html=1;rounded=0;entryX=0;entryY=0;entryDx=20;entryDy=0;entryPerimeter=0;exitX=0.5;exitY=1;exitDx=0;exitDy=0;" parent="1" source="9reZQKUpWbnYwI93RdAQ-57" target="9reZQKUpWbnYwI93RdAQ-61" edge="1">
          <mxGeometry width="50" height="50" relative="1" as="geometry">
            <mxPoint x="520" y="720" as="sourcePoint" />
            <mxPoint x="570" y="670" as="targetPoint" />
          </mxGeometry>
        </mxCell>
        <mxCell id="9reZQKUpWbnYwI93RdAQ-73" style="edgeStyle=orthogonalEdgeStyle;rounded=0;orthogonalLoop=1;jettySize=auto;html=1;entryX=0;entryY=0;entryDx=20;entryDy=0;entryPerimeter=0;" parent="1" source="9reZQKUpWbnYwI93RdAQ-54" target="9reZQKUpWbnYwI93RdAQ-64" edge="1">
          <mxGeometry relative="1" as="geometry" />
        </mxCell>
        <mxCell id="9reZQKUpWbnYwI93RdAQ-74" value="&lt;font style=&quot;font-size: 35px; color: rgb(255, 51, 51);&quot;&gt;&lt;b&gt;?&lt;/b&gt;&lt;/font&gt;" style="text;html=1;whiteSpace=wrap;strokeColor=none;fillColor=none;align=center;verticalAlign=middle;rounded=0;" parent="1" vertex="1">
          <mxGeometry x="680.72" y="850" width="60" height="30" as="geometry" />
        </mxCell>
        <mxCell id="HA8sWrpMGCGVNc43EwQf-1" value="" style="rounded=1;whiteSpace=wrap;html=1;fillColor=none;" vertex="1" parent="1">
          <mxGeometry x="20" y="20" width="1080" height="990" as="geometry" />
        </mxCell>
        <mxCell id="HA8sWrpMGCGVNc43EwQf-2" value="&lt;b&gt;&lt;i&gt;&lt;font style=&quot;font-size: 40px; color: rgb(255, 229, 153);&quot;&gt;By F.M.C&lt;/font&gt;&lt;/i&gt;&lt;/b&gt;" style="text;html=1;whiteSpace=wrap;strokeColor=none;fillColor=none;align=center;verticalAlign=middle;rounded=0;" vertex="1" parent="1">
          <mxGeometry x="868" y="1040" width="270" height="30" as="geometry" />
        </mxCell>
      </root>
    </mxGraphModel>
  </diagram>
</mxfile>
